<?xml version="1.0" standalone="no"?>
<!DOCTYPE svg PUBLIC "-//W3C//DTD SVG 20010904//EN"
 "http://www.w3.org/TR/2001/REC-SVG-20010904/DTD/svg10.dtd">
<svg version="1.0" xmlns="http://www.w3.org/2000/svg"
 width="2400.000000pt" height="1602.000000pt" viewBox="0 0 2400.000000 1602.000000"
 preserveAspectRatio="xMidYMid meet">

<g transform="translate(0.000000,1602.000000) scale(0.100000,-0.100000)"
fill="#000000" stroke="none">
<path d="M0 8010 l0 -8010 12000 0 12000 0 0 8010 0 8010 -12000 0 -12000 0 0
-8010z m11749 7926 c-13 -15 -19 -3 -12 24 6 22 7 22 14 4 3 -10 3 -23 -2 -28z
m-13 -41 c1 -16 -3 -25 -13 -25 -10 0 -13 6 -9 16 3 9 6 20 6 25 0 21 15 7 16
-16z m-1 -83 c3 -20 -1 -32 -11 -36 -8 -3 -14 -10 -14 -16 0 -6 5 -8 12 -4 7
4 8 3 4 -4 -4 -6 -13 -9 -21 -5 -16 6 -21 23 -6 23 5 0 11 7 14 14 4 10 1 13
-8 10 -11 -5 -12 1 -3 30 13 41 27 35 33 -12z m-34 -94 c2 -25 -3 -53 -13 -65
-5 -7 -7 -17 -3 -23 3 -5 -1 -17 -9 -26 -9 -8 -16 -12 -17 -7 -3 26 3 82 13
106 11 28 27 36 29 15z m-33 -191 c-5 -17 -11 -41 -13 -52 -1 -11 -3 -24 -4
-28 0 -5 -5 -6 -10 -3 -5 3 -5 26 1 53 13 66 16 75 27 68 6 -3 6 -18 -1 -38z
m-28 -126 c0 -6 -4 -13 -10 -16 -5 -3 -10 1 -10 9 0 9 5 16 10 16 6 0 10 -4
10 -9z m-14 -123 c-2 -35 -7 -70 -10 -78 -3 -8 -10 -34 -16 -58 -6 -23 -15
-40 -20 -37 -6 4 -6 14 2 28 6 12 10 41 9 65 0 24 3 41 7 38 5 -3 6 8 4 25 -3
18 0 29 7 29 7 0 9 5 6 10 -7 12 0 40 11 40 3 0 3 -28 0 -62z m11409 -98 c3
-5 1 -10 -4 -10 -6 0 -11 5 -11 10 0 6 2 10 4 10 3 0 8 -4 11 -10z m465 -749
c0 -6 -4 -13 -10 -16 -5 -3 -10 1 -10 9 0 9 5 16 10 16 6 0 10 -4 10 -9z m40
-28 c0 -3 -6 -10 -13 -17 -16 -17 -42 -9 -28 8 10 12 41 18 41 9z m134 -242
c19 -21 12 -50 -12 -47 -11 2 -17 13 -18 34 -2 37 6 40 30 13z m156 -257 c0
-8 5 -12 10 -9 14 9 12 -19 -2 -33 -21 -21 -38 -14 -38 16 0 16 3 32 7 35 11
12 23 8 23 -9z m160 -305 c0 -38 -24 -35 -28 4 -2 19 1 27 12 27 11 0 16 -10
16 -31z m-12593 -21 c-3 -8 -6 -5 -6 6 -1 11 2 17 5 13 3 -3 4 -12 1 -19z
m-10 -480 c-3 -8 -6 -5 -6 6 -1 11 2 17 5 13 3 -3 4 -12 1 -19z m-64 -558 c-3
-12 -8 -19 -11 -16 -5 6 5 36 12 36 2 0 2 -9 -1 -20z m-26 -157 c-3 -10 -5 -4
-5 12 0 17 2 24 5 18 2 -7 2 -21 0 -30z m-10 -55 c-3 -8 -6 -5 -6 6 -1 11 2
17 5 13 3 -3 4 -12 1 -19z m-16 -51 c-10 -9 -11 -8 -5 6 3 10 9 15 12 12 3 -3
0 -11 -7 -18z m-24 -189 c-3 -8 -6 -5 -6 6 -1 11 2 17 5 13 3 -3 4 -12 1 -19z
m-41 -318 c-9 -27 -16 -63 -16 -79 0 -18 -5 -31 -12 -31 -8 0 -9 -3 -3 -8 6
-4 11 -15 12 -25 0 -10 -2 -16 -5 -13 -8 9 -42 -25 -42 -41 0 -7 -4 -13 -10
-13 -18 0 -55 -207 -38 -212 5 -2 6 -18 2 -35 -4 -18 -11 -30 -17 -26 -5 3 -7
0 -5 -8 3 -8 1 -26 -3 -41 -5 -18 -4 -28 3 -28 6 0 5 -7 -3 -16 -7 -9 -12 -31
-10 -50 1 -19 -2 -34 -7 -34 -17 0 -42 -66 -42 -109 0 -57 -16 -52 -19 5 -1
44 32 203 64 304 14 46 24 106 29 170 1 19 11 53 23 75 11 22 24 51 28 65 4
14 14 33 23 43 8 9 16 25 17 35 6 56 19 113 26 118 5 3 10 15 10 27 2 21 2 21
6 -1 3 -13 -2 -46 -11 -72z m-19 -195 c0 -8 -4 -15 -9 -15 -10 0 -11 14 -1 23
9 10 10 9 10 -8z m-37 -45 c0 -5 -5 -10 -11 -10 -5 0 -7 5 -4 10 3 6 8 10 11
10 2 0 4 -4 4 -10z m-98 -492 c-7 -7 -12 -8 -12 -2 0 14 12 26 19 19 2 -3 -1
-11 -7 -17z m-29 -176 c3 -24 1 -40 -4 -36 -5 3 -9 14 -9 26 0 15 -4 18 -17
13 -15 -5 -16 -4 -5 6 6 7 12 27 13 44 0 25 2 27 8 10 5 -11 11 -39 14 -63z
m-35 -82 c-14 -59 -33 -79 -23 -25 7 40 24 80 30 73 2 -2 -1 -24 -7 -48z m42
-410 c0 -13 -1 -13 -10 0 -5 8 -10 22 -10 30 0 13 1 13 10 0 5 -8 10 -22 10
-30z m20 -30 c0 -5 -5 -10 -11 -10 -5 0 -7 5 -4 10 3 6 8 10 11 10 2 0 4 -4 4
-10z m24 -52 c8 -32 7 -40 -3 -34 -11 7 -21 56 -11 56 4 0 10 -10 14 -22z
m-319 -152 c-26 -36 -43 -66 -39 -66 4 0 -5 -11 -19 -24 -18 -17 -27 -38 -33
-77 -4 -30 -8 -63 -10 -74 -1 -11 -3 -22 -5 -25 -4 -9 -7 -25 -8 -48 -1 -13
-5 -20 -11 -17 -7 4 -9 33 -5 76 4 47 2 69 -5 69 -6 0 -8 -4 -5 -10 3 -5 1
-10 -4 -10 -6 0 -11 -5 -11 -11 0 -20 -41 -99 -51 -99 -7 0 -9 -11 -6 -28 4
-18 -1 -36 -13 -52 l-18 -24 10 44 c29 127 27 122 79 220 10 19 30 48 45 65
14 16 42 57 61 90 20 33 48 73 62 88 l26 29 3 -25 c2 -16 -12 -47 -43 -91z
m6030 -286 c22 -5 62 -12 90 -16 55 -7 99 -22 75 -24 -57 -7 -79 -6 -74 2 5 8
-25 4 -63 -8 -7 -2 -13 3 -13 11 0 10 -10 15 -29 15 -16 0 -34 7 -41 15 -15
18 -5 19 55 5z m-2378 -22 c-3 -8 -6 -5 -6 6 -1 11 2 17 5 13 3 -3 4 -12 1
-19z m2568 -44 c-10 -7 -22 -11 -27 -8 -5 3 -1 12 9 19 10 7 22 11 27 8 5 -4
1 -12 -9 -19z m-2550 6 c3 -5 1 -10 -4 -10 -6 0 -11 5 -11 10 0 6 2 10 4 10 3
0 8 -4 11 -10z m2145 -31 c9 -15 15 -18 24 -10 18 15 45 -14 29 -30 -13 -13
-48 3 -57 26 -3 9 -10 13 -16 10 -5 -3 -10 1 -10 9 0 23 17 20 30 -5z m-1395
-100 c4 -6 13 -8 21 -5 8 3 24 -10 40 -32 19 -27 25 -31 21 -15 -5 25 7 40 18
23 5 -8 12 -7 22 2 14 11 15 10 10 -7 -3 -11 -13 -60 -22 -110 -27 -149 -82
-312 -73 -213 2 20 1 36 -2 36 -39 -3 -52 3 -48 26 3 15 -1 27 -13 35 -10 6
-16 17 -13 25 4 10 -6 16 -35 21 -23 4 -39 11 -35 16 3 5 10 6 16 3 6 -4 9 -1
6 7 -3 8 -15 14 -27 13 -25 -1 -25 0 -4 33 17 25 17 25 -5 19 -14 -5 -22 -3
-22 4 0 21 33 68 57 81 13 7 23 18 23 25 0 7 8 10 20 7 11 -3 20 0 20 6 0 14
17 14 25 0z m1956 -25 c6 -7 15 -11 20 -8 5 3 9 3 9 0 0 -15 -20 -13 -40 4
-13 11 -29 20 -36 20 -7 0 -15 4 -19 10 -9 14 52 -9 66 -26z m-2244 -31 c-3
-10 -5 -2 -5 17 0 19 2 27 5 18 2 -10 2 -26 0 -35z m1913 28 c0 -6 -4 -13 -10
-16 -5 -3 -10 1 -10 9 0 9 5 16 10 16 6 0 10 -4 10 -9z m-1433 -85 c-8 -22
-20 -66 -27 -96 -13 -58 -26 -107 -43 -152 -10 -30 -32 -39 -23 -10 3 9 10 46
16 82 21 138 78 288 88 236 2 -10 -3 -37 -11 -60z m1859 54 c8 0 14 -5 14 -10
0 -6 6 -10 13 -9 26 3 37 -2 37 -16 0 -8 5 -15 12 -15 6 0 9 -2 6 -5 -9 -10
-38 7 -38 22 0 8 -5 11 -10 8 -6 -4 -17 -1 -25 5 -8 6 -23 9 -33 6 -12 -4 -25
0 -33 10 -12 15 -11 16 9 10 15 -5 22 -3 23 6 0 10 2 10 6 1 2 -7 11 -13 19
-13z m-1766 -16 c0 -8 -4 -12 -10 -9 -5 3 -10 13 -10 21 0 8 5 12 10 9 6 -3
10 -13 10 -21z m-5014 -31 c-11 -11 -19 6 -11 24 8 17 8 17 12 0 3 -10 2 -21
-1 -24z m6908 -18 c3 -8 1 -15 -4 -15 -6 0 -10 7 -10 15 0 8 2 15 4 15 2 0 6
-7 10 -15z m-6904 -10 c0 -8 -7 -15 -15 -15 -26 0 -18 20 13 29 1 1 2 -6 2
-14z m4260 -45 c0 -5 -5 -10 -11 -10 -5 0 -7 5 -4 10 3 6 8 10 11 10 2 0 4 -4
4 -10z m914 -24 c4 -18 4 -40 1 -48 -3 -8 -2 -26 3 -39 8 -19 5 -30 -9 -48
-10 -13 -17 -27 -14 -31 7 -12 -28 -139 -56 -205 -13 -29 -4 60 11 110 19 67
32 129 31 150 -3 40 11 145 19 145 4 0 11 -15 14 -34z m156 -37 c0 -5 6 -9 13
-9 7 0 34 -13 60 -30 44 -27 46 -31 37 -56 -6 -15 -8 -29 -6 -32 3 -2 -1 -14
-9 -25 -8 -11 -12 -30 -9 -41 6 -28 -39 -51 -57 -29 -7 8 -21 12 -31 10 -19
-5 -25 8 -8 18 6 3 10 11 10 17 0 6 -6 6 -15 -2 -9 -7 -18 -10 -22 -6 -4 3 3
13 15 22 19 13 20 17 8 30 -8 8 -22 14 -30 14 -21 0 -20 14 3 77 10 29 16 55
13 58 -4 3 1 3 11 -1 9 -3 17 -10 17 -15z m-910 -9 c0 -5 -2 -10 -4 -10 -3 0
-8 5 -11 10 -3 6 -1 10 4 10 6 0 11 -4 11 -10z m75 -40 c4 -6 10 -8 15 -5 5 3
11 -4 15 -15 3 -11 14 -20 24 -20 10 0 26 -9 36 -20 10 -11 24 -20 31 -20 18
0 121 -103 107 -107 -11 -4 -165 111 -171 128 -2 5 -8 9 -14 9 -15 0 -68 40
-68 51 0 12 17 12 25 -1z m479 -45 c-5 -38 -3 -59 6 -70 7 -9 10 -19 6 -23
-11 -10 -46 36 -46 60 0 19 28 88 36 88 2 0 1 -25 -2 -55z m-227 -17 c-3 -8
-6 -5 -6 6 -1 11 2 17 5 13 3 -3 4 -12 1 -19z m785 -95 c-1 -54 -4 -107 -6
-118 -2 -18 -4 -17 -13 5 -6 14 -20 33 -31 42 -26 21 -19 53 17 84 14 12 24
25 20 28 -9 9 -69 -38 -69 -54 0 -12 -2 -12 -8 -2 -15 22 2 87 19 76 5 -3 9 3
9 13 0 14 8 19 33 21 l33 2 -4 -97z m100 52 c-2 -13 -1 -33 3 -42 4 -10 9 -57
11 -105 3 -47 15 -156 27 -242 13 -86 21 -156 18 -156 -12 0 -31 56 -31 91 0
20 -7 42 -15 49 -13 11 -14 3 -10 -61 4 -78 19 -172 30 -189 4 -6 4 -18 1 -27
-24 -63 -69 183 -88 480 -9 142 -8 180 2 190 10 10 11 8 6 -8 -5 -18 -2 -52
20 -215 2 -19 5 -55 5 -80 0 -55 12 -81 31 -62 9 9 9 19 0 46 -7 19 -10 46 -6
60 3 15 1 32 -5 40 -7 8 -9 29 -5 54 4 24 2 42 -5 46 -15 10 -3 156 13 156 2
0 1 -11 -2 -25z m-287 -75 c-3 -5 -12 -10 -18 -10 -7 0 -6 4 3 10 19 12 23 12
15 0z m457 -18 c20 -17 18 -33 -18 -137 -20 -57 -23 -76 -15 -98 9 -24 15 -27
59 -27 51 0 72 12 72 42 0 10 5 18 10 18 6 0 10 -10 10 -22 0 -13 7 -32 15
-42 8 -11 15 -30 15 -42 0 -12 7 -27 15 -34 8 -7 15 -21 15 -31 0 -10 19 -55
43 -99 59 -113 67 -126 67 -115 0 6 13 -15 29 -45 l28 -55 -24 -48 -24 -48
-95 96 c-73 74 -96 92 -101 79 -3 -9 -2 -19 3 -23 16 -11 35 -52 28 -62 -8
-14 -34 9 -28 26 3 7 -3 16 -15 20 -11 3 -20 9 -19 13 4 14 -23 51 -42 57 -19
6 -48 80 -36 93 4 3 0 15 -8 27 -18 28 -23 56 -12 74 6 9 3 17 -8 23 -12 7
-14 14 -6 28 13 25 13 30 -5 30 -8 0 -15 5 -15 10 0 6 4 10 9 10 10 0 8 47 -4
73 -4 10 -14 16 -22 13 -8 -3 -12 -2 -8 3 3 5 -1 16 -9 23 -11 11 -11 19 -2
36 7 13 16 19 21 15 5 -4 3 0 -4 10 -7 9 -20 17 -27 17 -8 0 -14 5 -14 10 0 6
7 10 15 10 8 0 15 5 15 11 0 5 -4 7 -10 4 -5 -3 -10 -2 -10 3 0 5 9 12 20 15
11 3 20 10 20 17 0 6 -4 8 -10 5 -12 -7 -12 -3 -4 20 8 20 61 18 86 -3z m1948
-122 c0 -5 -2 -10 -4 -10 -3 0 -8 5 -11 10 -3 6 -1 10 4 10 6 0 11 -4 11 -10z
m-1792 -77 l0 -38 -14 28 c-14 27 -12 47 6 47 4 0 8 -17 8 -37z m-913 -33 c-9
-16 -18 -30 -21 -30 -2 0 2 14 11 30 9 17 18 30 21 30 2 0 -2 -13 -11 -30z
m432 -12 c-3 -8 -6 -5 -6 6 -1 11 2 17 5 13 3 -3 4 -12 1 -19z m513 -34 c0
-31 -2 -35 -15 -24 -16 13 -20 42 -8 53 15 15 23 5 23 -29z m-989 -37 c-10 -9
-11 -8 -5 6 3 10 9 15 12 12 3 -3 0 -11 -7 -18z m1019 -54 c-1 -27 -1 -27 -15
-9 -14 19 -12 36 6 36 5 0 9 -12 9 -27z m36 -68 c19 -46 18 -52 -6 -30 -11 10
-20 29 -20 42 0 33 9 29 26 -12z m-352 -47 c8 -32 7 -38 -4 -38 -5 0 -10 6
-10 14 0 8 -5 16 -12 18 -6 2 -8 10 -4 16 11 18 23 14 30 -10z m391 -29 c4
-12 16 -30 26 -40 26 -26 25 -43 -2 -29 -11 7 -25 25 -31 41 -5 16 -14 29 -19
29 -5 0 -9 5 -9 10 0 19 29 10 35 -11z m80 -119 c0 -7 -6 -15 -12 -17 -8 -3
-13 4 -13 17 0 13 5 20 13 18 6 -3 12 -11 12 -18z m-485 -36 c0 -8 -4 -14 -10
-14 -5 0 -10 9 -10 21 0 11 5 17 10 14 6 -3 10 -13 10 -21z m282 -51 c22 -20
23 -33 3 -33 -12 0 -35 28 -35 44 0 11 13 6 32 -11z m233 -32 c-9 -15 -66 -44
-72 -37 -7 7 17 69 30 78 13 8 51 -28 42 -41z m-491 3 c11 -28 6 -39 -9 -20
-8 11 -15 23 -15 28 0 14 18 9 24 -8z m294 -25 c-2 -6 -8 -10 -13 -10 -5 0
-11 4 -13 10 -2 6 4 11 13 11 9 0 15 -5 13 -11z m277 -30 c17 -16 38 -29 48
-29 9 0 21 -9 27 -21 7 -12 18 -18 26 -15 8 3 14 4 14 2 0 -3 3 -11 6 -19 4
-12 -3 -15 -31 -15 -19 0 -42 -6 -51 -12 -8 -7 -17 -10 -21 -6 -3 3 -1 6 7 6
10 0 10 3 0 15 -6 8 -9 19 -5 26 5 8 1 9 -14 4 -26 -8 -52 10 -44 31 3 8 1 14
-5 14 -5 0 -13 -10 -17 -22 -6 -19 -8 -20 -12 -6 -2 9 -10 15 -17 12 -7 -3
-19 2 -26 11 -12 14 -10 20 16 40 34 28 56 25 99 -16z m-247 -12 c5 -24 -15
-21 -21 4 -3 13 -1 19 6 16 7 -2 13 -11 15 -20z m-290 -32 c-3 -3 -9 2 -12 12
-6 14 -5 15 5 6 7 -7 10 -15 7 -18z m362 -35 c0 -5 -4 -10 -10 -10 -5 0 -10 5
-10 10 0 6 5 10 10 10 6 0 10 -4 10 -10z m345 -40 c-3 -5 -11 -10 -16 -10 -6
0 -7 5 -4 10 3 6 11 10 16 10 6 0 7 -4 4 -10z m129 -53 c-1 -13 3 -14 22 -5
18 9 29 7 50 -6 14 -10 35 -16 45 -13 10 3 17 1 13 -4 -3 -5 4 -9 15 -9 19 0
20 -2 9 -20 -7 -11 -21 -20 -30 -20 -23 0 -23 17 0 23 10 3 6 5 -10 6 -16 0
-28 -3 -28 -9 0 -13 -47 -13 -55 0 -3 5 -16 10 -28 10 -12 -1 -37 2 -54 6 -28
5 -33 11 -32 33 0 25 0 25 9 4 7 -17 17 -23 37 -22 17 1 21 3 11 6 -21 5 -23
14 -6 31 16 16 33 9 32 -11z m576 -17 c0 -5 -5 -10 -11 -10 -5 0 -7 5 -4 10 3
6 8 10 11 10 2 0 4 -4 4 -10z m-382 -46 c-7 -15 -14 -21 -16 -15 -2 7 2 18 8
26 18 22 21 18 8 -11z m29 -6 c-3 -8 -6 -5 -6 6 -1 11 2 17 5 13 3 -3 4 -12 1
-19z m-933 -54 c3 -8 2 -12 -4 -9 -6 3 -10 10 -10 16 0 14 7 11 14 -7z m810
-77 c-1 -10 5 -17 15 -17 11 -1 9 -5 -9 -15 l-25 -15 29 6 c21 5 27 4 22 -5
-4 -6 -14 -11 -22 -11 -8 0 -14 -6 -14 -12 -1 -7 -10 4 -20 24 -11 20 -17 44
-14 53 8 21 39 14 38 -8z m-6436 -439 c-2 -6 -10 -14 -16 -16 -7 -2 -10 2 -6
12 7 18 28 22 22 4z m3322 -92 c0 -3 -4 -8 -10 -11 -5 -3 -10 -1 -10 4 0 6 5
11 10 11 6 0 10 -2 10 -4z m-320 -40 c0 -2 -8 -10 -17 -17 -16 -13 -17 -12 -4
4 13 16 21 21 21 13z m2830 -10 c0 -3 -4 -8 -10 -11 -5 -3 -10 -1 -10 4 0 6 5
11 10 11 6 0 10 -2 10 -4z m-10186 -58 c-3 -18 -17 -47 -30 -63 -25 -33 -69
-125 -66 -137 1 -5 -5 -8 -13 -8 -17 0 -15 8 36 105 21 40 41 70 45 67 4 -4 4
-1 0 6 -5 9 -24 -2 -67 -39 -32 -28 -59 -54 -59 -57 0 -4 -10 -19 -23 -34 -12
-14 -31 -38 -41 -52 -37 -51 -27 -17 12 41 42 62 94 118 158 170 49 41 57 41
48 1z m5076 13 c0 -11 -3 -22 -7 -24 -5 -3 -8 6 -8 19 0 13 3 24 8 24 4 0 7
-9 7 -19z m2654 3 c5 -14 4 -15 -9 -4 -17 14 -19 20 -6 20 5 0 12 -7 15 -16z
m-1509 -3 c3 -5 2 -12 -3 -15 -5 -3 -9 1 -9 9 0 17 3 19 12 6z m-95 -5 c0 -3
-4 -8 -10 -11 -5 -3 -10 -1 -10 4 0 6 5 11 10 11 6 0 10 -2 10 -4z m-2193 -26
c1 -11 -2 -20 -7 -20 -6 0 -7 17 -1 38 3 8 7 -1 8 -18z m4389 -37 c-4 -4 -11
-1 -16 7 -16 25 -11 35 7 17 9 -9 13 -20 9 -24z m-2260 0 c-10 -10 -19 5 -10
18 6 11 8 11 12 0 2 -7 1 -15 -2 -18z m1405 4 c-10 -9 -11 -8 -5 6 3 10 9 15
12 12 3 -3 0 -11 -7 -18z m-878 -2 c-3 -9 -8 -14 -10 -11 -3 3 -2 9 2 15 9 16
15 13 8 -4z m-1003 -5 c0 -5 -5 -10 -11 -10 -5 0 -7 5 -4 10 3 6 8 10 11 10 2
0 4 -4 4 -10z m1908 -25 c1 -14 -2 -25 -6 -25 -4 0 -9 11 -10 25 -1 14 2 25 6
25 4 0 9 -11 10 -25z m332 21 c0 -3 -4 -8 -10 -11 -5 -3 -10 -1 -10 4 0 6 5
11 10 11 6 0 10 -2 10 -4z m170 -10 c0 -3 -4 -8 -10 -11 -5 -3 -10 -1 -10 4 0
6 5 11 10 11 6 0 10 -2 10 -4z m-3390 -26 c-8 -6 -22 -10 -30 -9 -9 0 -5 6 10
14 27 14 44 10 20 -5z m4180 -4 c0 -2 -8 -10 -17 -17 -16 -13 -17 -12 -4 4 13
16 21 21 21 13z m-2610 -57 c-7 -11 -14 -18 -17 -15 -3 3 0 12 7 21 18 21 23
19 10 -6z m2280 4 c0 -5 -5 -15 -10 -23 -8 -12 -10 -11 -10 8 0 12 5 22 10 22
6 0 10 -3 10 -7z m-924 -28 c1 -8 -2 -13 -7 -9 -5 3 -9 12 -9 21 0 19 13 9 16
-12z m-7639 -71 c-2 -2 -12 -2 -21 2 -13 5 -14 9 -5 21 11 12 14 12 22 -2 5
-9 7 -19 4 -21z m7233 21 c0 -8 -2 -15 -4 -15 -2 0 -6 7 -10 15 -3 8 -1 15 4
15 6 0 10 -7 10 -15z m170 11 c0 -3 -4 -8 -10 -11 -5 -3 -10 -1 -10 4 0 6 5
11 10 11 6 0 10 -2 10 -4z m322 -38 c-8 -8 -9 -4 -5 13 4 13 8 18 11 10 2 -7
-1 -18 -6 -23z m-2962 -2 c0 -2 -8 -10 -17 -17 -16 -13 -17 -12 -4 4 13 16 21
21 21 13z m2225 -6 c3 -5 1 -10 -4 -10 -6 0 -11 5 -11 10 0 6 2 10 4 10 3 0 8
-4 11 -10z m-7015 -9 c0 -6 -5 -13 -10 -16 -6 -4 -7 -11 -4 -17 4 -6 0 -14 -7
-19 -10 -6 -10 -9 -2 -9 16 0 6 -27 -19 -52 -19 -19 -24 -9 -9 20 5 9 15 36
22 60 11 37 29 58 29 33z m8745 -1 c3 -5 1 -10 -4 -10 -6 0 -11 5 -11 10 0 6
2 10 4 10 3 0 8 -4 11 -10z m-4238 -32 c-16 -10 -21 -2 -13 19 6 15 9 15 16 3
6 -9 5 -17 -3 -22z m2238 22 c19 -7 19 -8 1 -15 -11 -5 -21 -3 -25 4 -4 6 -16
9 -27 5 -16 -5 -16 -4 -4 5 17 12 27 13 55 1z m1675 0 c0 -5 -5 -10 -11 -10
-5 0 -7 5 -4 10 3 6 8 10 11 10 2 0 4 -4 4 -10z m-304 -27 c-10 -10 -19 5 -10
18 6 11 8 11 12 0 2 -7 1 -15 -2 -18z m1189 17 c3 -5 1 -10 -4 -10 -6 0 -11 5
-11 10 0 6 2 10 4 10 3 0 8 -4 11 -10z m-1068 -7 c-4 -3 -2 -12 4 -20 6 -7 8
-13 3 -13 -5 0 -2 -5 6 -10 9 -6 10 -10 3 -10 -15 0 -36 37 -28 50 3 6 9 10
12 10 4 0 3 -3 0 -7z m-3882 -22 c-3 -6 -11 -11 -17 -11 -6 0 -6 6 2 15 14 17
26 13 15 -4z m825 15 c0 -3 -4 -8 -10 -11 -5 -3 -10 -1 -10 4 0 6 5 11 10 11
6 0 10 -2 10 -4z m-1126 -21 c-4 -8 -11 -15 -16 -15 -6 0 -5 6 2 15 7 8 14 15
16 15 2 0 1 -7 -2 -15z m4333 -7 c-3 -8 -6 -5 -6 6 -1 11 2 17 5 13 3 -3 4
-12 1 -19z m516 7 c-3 -9 -8 -14 -10 -11 -3 3 -2 9 2 15 9 16 15 13 8 -4z
m-3974 -18 c-2 -1 -12 -9 -22 -16 -15 -12 -17 -12 -11 3 3 9 13 16 22 16 8 0
13 -1 11 -3z m698 -19 c-3 -8 -6 -5 -6 6 -1 11 2 17 5 13 3 -3 4 -12 1 -19z
m3364 -5 c-12 -20 -14 -14 -5 12 4 9 9 14 11 11 3 -2 0 -13 -6 -23z m-5020
-39 l-9 -39 -1 41 c-1 22 2 44 6 48 12 12 14 -8 4 -50z m3734 47 c3 -5 1 -12
-5 -16 -5 -3 -10 1 -10 9 0 18 6 21 15 7z m925 -1 c0 -5 -5 -10 -11 -10 -5 0
-7 5 -4 10 3 6 8 10 11 10 2 0 4 -4 4 -10z m-4225 -10 c-3 -5 -11 -10 -16 -10
-6 0 -7 5 -4 10 3 6 11 10 16 10 6 0 7 -4 4 -10z m4472 -12 c-3 -8 -6 -5 -6 6
-1 11 2 17 5 13 3 -3 4 -12 1 -19z m-5274 -3 c-3 -9 -8 -14 -10 -11 -3 3 -2 9
2 15 9 16 15 13 8 -4z m-3858 -45 c-23 -45 -32 -29 -10 17 10 21 20 33 22 26
2 -6 -3 -26 -12 -43z m8045 34 c0 -8 -5 -12 -10 -9 -6 4 -8 11 -5 16 9 14 15
11 15 -7z m-240 -3 c0 -6 -4 -13 -10 -16 -5 -3 -10 1 -10 9 0 9 5 16 10 16 6
0 10 -4 10 -9z m-40 -7 c0 -8 -19 -13 -24 -6 -3 5 1 9 9 9 8 0 15 -2 15 -3z
m1220 -8 c0 -3 -4 -8 -10 -11 -5 -3 -10 -1 -10 4 0 6 5 11 10 11 6 0 10 -2 10
-4z m-5745 -40 c7 -35 1 -116 -10 -117 -32 -6 -41 -3 -52 16 -15 25 -16 63 -3
102 9 25 15 29 36 25 14 -3 26 -13 29 -26z m1868 19 c-3 -9 -8 -14 -10 -11 -3
3 -2 9 2 15 9 16 15 13 8 -4z m1207 -5 c0 -5 -5 -10 -11 -10 -5 0 -7 5 -4 10
3 6 8 10 11 10 2 0 4 -4 4 -10z m790 6 c0 -3 -4 -8 -10 -11 -5 -3 -10 -1 -10
4 0 6 5 11 10 11 6 0 10 -2 10 -4z m4400 -6 c0 -5 -5 -10 -11 -10 -5 0 -7 5
-4 10 3 6 8 10 11 10 2 0 4 -4 4 -10z m-4203 -22 c-3 -8 -6 -5 -6 6 -1 11 2
17 5 13 3 -3 4 -12 1 -19z m203 8 c0 -2 -7 -9 -15 -16 -13 -11 -14 -10 -9 4 5
14 24 23 24 12z m-807 -31 c-3 -9 -8 -14 -10 -11 -3 3 -2 9 2 15 9 16 15 13 8
-4z m2577 -20 c0 -5 -5 -3 -10 5 -5 8 -10 20 -10 25 0 6 5 3 10 -5 5 -8 10
-19 10 -25z m-4648 -10 c-12 -22 -27 -2 -18 22 5 12 10 13 17 6 7 -7 8 -17 1
-28z m3848 31 c0 -2 -7 -7 -16 -10 -8 -3 -12 -2 -9 4 6 10 25 14 25 6z m73
-16 c-3 -12 -8 -19 -11 -16 -5 6 5 36 12 36 2 0 2 -9 -1 -20z m134 14 c-3 -3
-12 -4 -19 -1 -8 3 -5 6 6 6 11 1 17 -2 13 -5z m941 -5 c-2 -6 -8 -10 -13 -10
-5 0 -11 4 -13 10 -2 6 4 11 13 11 9 0 15 -5 13 -11z m-1325 -20 c-6 -23 -33
-33 -33 -13 0 9 5 12 12 8 7 -5 9 -2 6 8 -4 8 -1 15 7 15 7 0 10 -8 8 -18z
m-1933 7 c0 -3 -4 -8 -10 -11 -5 -3 -10 -1 -10 4 0 6 5 11 10 11 6 0 10 -2 10
-4z m3890 -41 c-17 -16 -22 -17 -32 -6 -11 12 -10 13 4 8 13 -5 19 0 24 19 5
19 9 22 15 12 5 -8 1 -20 -11 -33z m-2570 31 c0 -3 -4 -8 -10 -11 -5 -3 -10
-1 -10 4 0 6 5 11 10 11 6 0 10 -2 10 -4z m3777 -28 c-3 -8 -6 -5 -6 6 -1 11
2 17 5 13 3 -3 4 -12 1 -19z m-1447 -8 c-10 -19 -30 -28 -30 -14 0 6 30 33 38
34 1 0 -2 -9 -8 -20z m-2136 -5 c-4 -8 -10 -12 -15 -9 -11 6 -2 24 11 24 5 0
7 -7 4 -15z m-4516 -37 c3 -39 -11 -51 -47 -41 -30 8 -29 54 2 69 33 17 42 11
45 -28z m4776 24 c3 -5 -1 -9 -9 -9 -8 0 -12 4 -9 9 3 4 7 8 9 8 2 0 6 -4 9
-8z m-714 -12 c0 -5 -2 -10 -4 -10 -3 0 -8 5 -11 10 -3 6 -1 10 4 10 6 0 11
-4 11 -10z m-7509 -27 c-8 -15 -10 -15 -11 -2 0 17 10 32 18 25 2 -3 -1 -13
-7 -23z m4696 5 c-3 -8 -6 -5 -6 6 -1 11 2 17 5 13 3 -3 4 -12 1 -19z m4613 2
c0 -5 -8 -10 -17 -10 -15 0 -16 2 -3 10 19 12 20 12 20 0z m-2436 -16 c3 -8 2
-12 -4 -9 -6 3 -10 10 -10 16 0 14 7 11 14 -7z m-1514 -4 c0 -5 -5 -10 -11
-10 -5 0 -7 5 -4 10 3 6 8 10 11 10 2 0 4 -4 4 -10z m1100 -43 c0 -3 -9 -7
-19 -10 -21 -5 -34 23 -24 49 4 11 10 8 24 -10 10 -13 19 -26 19 -29z m1667
47 c-3 -3 -12 -4 -19 -1 -8 3 -5 6 6 6 11 1 17 -2 13 -5z m613 -4 c0 -5 -4
-10 -10 -10 -5 0 -10 5 -10 10 0 6 5 10 10 10 6 0 10 -4 10 -10z m-1438 -22
c-7 -7 -12 -8 -12 -2 0 14 12 26 19 19 2 -3 -1 -11 -7 -17z m-7332 -45 c-11
-17 -11 -17 -6 0 3 10 6 24 7 30 0 9 2 9 5 0 3 -7 0 -20 -6 -30z m6720 27 c0
-5 -10 -10 -22 -10 -19 0 -20 2 -8 10 19 13 30 13 30 0z m1130 -5 c-6 -8 -9
-18 -6 -23 3 -5 -1 -9 -9 -9 -8 0 -13 3 -11 6 2 3 6 14 9 24 4 9 12 17 18 17
8 0 8 -4 -1 -15z m-1529 -18 c-10 -9 -11 -8 -5 6 3 10 9 15 12 12 3 -3 0 -11
-7 -18z m1349 19 c0 -3 -4 -8 -10 -11 -5 -3 -10 -1 -10 4 0 6 5 11 10 11 6 0
10 -2 10 -4z m990 -3 c0 -5 -5 -15 -10 -23 -8 -12 -10 -11 -10 8 0 12 5 22 10
22 6 0 10 -3 10 -7z m-570 -7 c0 -3 -4 -8 -10 -11 -5 -3 -10 -1 -10 4 0 6 5
11 10 11 6 0 10 -2 10 -4z m305 -25 c-9 -16 -25 -3 -18 15 4 10 9 12 15 6 6
-6 7 -15 3 -21z m355 -11 c0 -5 -5 -10 -11 -10 -5 0 -7 5 -4 10 3 6 8 10 11
10 2 0 4 -4 4 -10z m-4156 -9 c3 -4 -4 -17 -16 -27 -21 -19 -21 -19 -10 2 6
12 8 24 5 28 -3 3 -1 6 5 6 6 0 13 -4 16 -9z m5261 -11 c3 -5 1 -10 -4 -10 -6
0 -11 5 -11 10 0 6 2 10 4 10 3 0 8 -4 11 -10z m-4292 -15 c-3 -9 -8 -14 -10
-11 -3 3 -2 9 2 15 9 16 15 13 8 -4z m2401 -9 c-3 -9 -10 -13 -15 -10 -5 3 -3
11 4 19 15 16 19 13 11 -9z m4243 -8 c-3 -8 -6 -5 -6 6 -1 11 2 17 5 13 3 -3
4 -12 1 -19z m-6440 -10 c-3 -8 -6 -5 -6 6 -1 11 2 17 5 13 3 -3 4 -12 1 -19z
m2493 18 c0 -3 -4 -8 -10 -11 -5 -3 -10 -1 -10 4 0 6 5 11 10 11 6 0 10 -2 10
-4z m700 -12 c0 -8 -4 -12 -10 -9 -5 3 -10 10 -10 16 0 5 5 9 10 9 6 0 10 -7
10 -16z m-1450 2 c0 -2 -7 -7 -16 -10 -8 -3 -12 -2 -9 4 6 10 25 14 25 6z
m620 0 c0 -3 -4 -8 -10 -11 -5 -3 -10 -1 -10 4 0 6 5 11 10 11 6 0 10 -2 10
-4z m650 -15 c0 -6 -4 -13 -10 -16 -5 -3 -10 1 -10 9 0 9 5 16 10 16 6 0 10
-4 10 -9z m-2805 -31 c0 -7 -5 -15 -10 -17 -6 -2 -11 6 -11 17 0 11 5 19 11
17 5 -2 10 -10 10 -17z m2732 -22 c-3 -8 -6 -5 -6 6 -1 11 2 17 5 13 3 -3 4
-12 1 -19z m123 -4 c0 -8 -5 -12 -10 -9 -6 4 -8 11 -5 16 9 14 15 11 15 -7z
m-280 -8 c0 -8 -7 -21 -15 -30 -8 -8 -15 -20 -15 -26 0 -6 -4 -9 -9 -6 -11 7
-2 46 10 46 5 0 9 5 9 11 0 5 -5 7 -12 3 -7 -4 -8 -3 -4 4 10 17 36 15 36 -2z
m87 -18 c-3 -7 -5 -2 -5 12 0 14 2 19 5 13 2 -7 2 -19 0 -25z m-3771 -16 c-18
-16 -18 -16 -6 6 6 13 14 21 18 18 3 -4 -2 -14 -12 -24z m381 22 c-3 -3 -12
-4 -19 -1 -8 3 -5 6 6 6 11 1 17 -2 13 -5z m1863 -39 c0 -8 -4 -15 -10 -15 -5
0 -10 7 -10 15 0 8 5 15 10 15 6 0 10 -7 10 -15z m2137 -17 c-3 -8 -6 -5 -6 6
-1 11 2 17 5 13 3 -3 4 -12 1 -19z m-1567 -2 c0 -3 -4 -8 -10 -11 -5 -3 -10
-1 -10 4 0 6 5 11 10 11 6 0 10 -2 10 -4z m-1489 -39 c-10 -9 -11 -8 -5 6 3
10 9 15 12 12 3 -3 0 -11 -7 -18z m2859 13 c0 -5 -4 -10 -10 -10 -5 0 -10 5
-10 10 0 6 5 10 10 10 6 0 10 -4 10 -10z m310 3 c0 -5 -5 -15 -10 -23 -8 -12
-10 -11 -10 8 0 12 5 22 10 22 6 0 10 -3 10 -7z m-1450 -7 c0 -3 -4 -8 -10
-11 -5 -3 -10 -1 -10 4 0 6 5 11 10 11 6 0 10 -2 10 -4z m597 -18 c-3 -8 -6
-5 -6 6 -1 11 2 17 5 13 3 -3 4 -12 1 -19z m960 16 c-3 -3 -12 -4 -19 -1 -8 3
-5 6 6 6 11 1 17 -2 13 -5z m-2077 -28 c0 -3 -4 -8 -10 -11 -5 -3 -10 -1 -10
4 0 6 5 11 10 11 6 0 10 -2 10 -4z m1364 -20 c-6 -16 -24 -23 -24 -8 0 10 22
33 27 28 2 -2 1 -11 -3 -20z m1578 2 c-7 -7 -12 -8 -12 -2 0 14 12 26 19 19 2
-3 -1 -11 -7 -17z m-4719 -3 c-3 -9 -8 -14 -10 -11 -3 3 -2 9 2 15 9 16 15 13
8 -4z m2337 5 c0 -5 -5 -10 -11 -10 -5 0 -7 5 -4 10 3 6 8 10 11 10 2 0 4 -4
4 -10z m487 -8 c-13 -14 -14 -21 -5 -30 9 -9 9 -12 0 -12 -22 0 -25 30 -6 45
26 20 30 18 11 -3z m-1782 -2 c3 -5 1 -10 -4 -10 -6 0 -11 5 -11 10 0 6 2 10
4 10 3 0 8 -4 11 -10z m3795 1 c0 -6 -4 -13 -10 -16 -5 -3 -10 1 -10 9 0 9 5
16 10 16 6 0 10 -4 10 -9z m-2640 -28 c0 -9 -3 -13 -7 -10 -3 4 -12 -1 -19
-11 -12 -16 -13 -16 -14 4 0 23 19 46 32 38 4 -3 8 -12 8 -21z m-464 -15 c-3
-13 -5 -25 -5 -28 -1 -3 -5 2 -11 10 -5 9 -5 19 2 27 15 19 18 16 14 -9z
m3708 7 c-4 -8 -8 -15 -10 -15 -2 0 -4 7 -4 15 0 8 4 15 10 15 5 0 7 -7 4 -15z
m-669 -15 c-3 -5 -11 -10 -16 -10 -6 0 -7 5 -4 10 3 6 11 10 16 10 6 0 7 -4 4
-10z m-1571 -15 c-4 -8 -11 -15 -16 -15 -6 0 -5 6 2 15 7 8 14 15 16 15 2 0 1
-7 -2 -15z m2236 -5 c0 -5 -7 -10 -16 -10 -8 0 -12 5 -9 10 3 6 10 10 16 10 5
0 9 -4 9 -10z m340 -10 c0 -11 -4 -20 -9 -20 -5 0 -7 9 -4 20 3 11 7 20 9 20
2 0 4 -9 4 -20z m-383 -36 c-9 -9 -28 6 -21 18 4 6 10 6 17 -1 6 -6 8 -13 4
-17z m-1767 -9 c-7 -9 -15 -13 -17 -11 -6 6 20 36 26 30 2 -2 -2 -10 -9 -19z
m382 -37 c-6 -26 -20 -22 -17 5 5 51 6 53 14 32 4 -11 6 -28 3 -37z m-2992 32
c0 -5 -5 -10 -11 -10 -5 0 -7 5 -4 10 3 6 8 10 11 10 2 0 4 -4 4 -10z m1560 0
c0 -5 -4 -10 -10 -10 -5 0 -10 5 -10 10 0 6 5 10 10 10 6 0 10 -4 10 -10z
m1000 -30 c0 -5 -5 -10 -11 -10 -5 0 -7 5 -4 10 3 6 8 10 11 10 2 0 4 -4 4
-10z m1780 -30 c0 -5 -5 -10 -11 -10 -5 0 -7 5 -4 10 3 6 8 10 11 10 2 0 4 -4
4 -10z m-7550 -50 c0 -5 5 -10 11 -10 12 0 48 -37 50 -52 2 -12 6 -28 9 -30 1
-2 3 -12 4 -24 2 -15 -4 -20 -26 -22 -15 -1 -28 3 -28 8 0 6 -5 8 -11 5 -13
-9 -55 30 -74 68 -14 28 -13 31 7 48 23 20 58 26 58 9z m4310 -10 c0 -5 -7
-10 -16 -10 -8 0 -12 5 -9 10 3 6 10 10 16 10 5 0 9 -4 9 -10z m959 -6 c3 -3
0 -9 -7 -16 -8 -8 -15 -7 -26 5 -9 9 -16 18 -16 22 0 6 40 -3 49 -11z m-1106
-64 c3 -11 1 -23 -4 -26 -5 -3 -9 0 -9 6 0 6 -4 9 -9 6 -5 -4 -7 3 -4 14 7 26
19 26 26 0z m2057 -10 c0 -5 -10 -10 -22 -10 -19 0 -20 2 -8 10 19 13 30 13
30 0z m-2890 -30 c-6 -12 -14 -19 -17 -17 -2 3 1 15 7 27 6 12 14 19 17 17 2
-3 -1 -15 -7 -27z m1575 -1 c-5 -15 -4 -19 4 -15 6 4 11 2 11 -3 0 -13 -3 -13
-24 -5 -12 5 -13 10 -5 25 13 26 22 24 14 -2z m-3190 -39 c3 -5 -1 -10 -10
-10 -9 0 -13 5 -10 10 3 6 8 10 10 10 2 0 7 -4 10 -10z m2548 -5 c4 -8 2 -17
-3 -20 -6 -4 -10 -4 -10 -1 0 2 -3 11 -6 20 -3 9 -2 16 4 16 5 0 12 -7 15 -15z
m637 5 c0 -5 -4 -10 -10 -10 -5 0 -10 5 -10 10 0 6 5 10 10 10 6 0 10 -4 10
-10z m-4765 -11 c-3 -3 4 -14 14 -23 15 -14 23 -15 44 -5 21 9 30 9 42 -1 13
-11 13 -15 3 -22 -9 -5 -10 -11 -3 -15 16 -12 12 -37 -8 -57 -10 -11 -15 -26
-12 -36 3 -10 1 -21 -5 -25 -8 -5 -8 -11 1 -21 9 -11 8 -14 -2 -14 -10 0 -10
-3 -1 -12 9 -9 5 -16 -17 -29 -31 -19 -83 -19 -89 0 -2 6 -13 11 -23 11 -11 0
-17 4 -14 10 3 6 -1 7 -10 4 -22 -9 -55 24 -55 55 0 43 26 116 43 119 8 2 18
15 22 30 4 15 12 30 18 34 14 9 57 6 52 -3z m3412 -125 c-3 -3 -12 -4 -19 -1
-8 3 -5 6 6 6 11 1 17 -2 13 -5z m3077 -7 c10 -10 10 -15 1 -24 -15 -14 -25
-7 -25 19 0 21 7 23 24 5z m-1430 -31 c-10 -8 -21 -12 -24 -10 -5 6 21 24 34
24 6 0 1 -6 -10 -14z m1911 4 c-3 -5 -12 -10 -18 -10 -7 0 -6 4 3 10 19 12 23
12 15 0z m-1335 -4 c0 -3 -4 -8 -10 -11 -5 -3 -10 -1 -10 4 0 6 5 11 10 11 6
0 10 -2 10 -4z m-5423 -101 c1 -20 5 -41 11 -48 16 -21 22 -75 9 -81 -7 -4 0
-4 16 -1 27 5 38 -9 15 -18 -10 -4 -9 -8 2 -16 21 -14 24 -157 3 -165 -8 -3
-11 -10 -8 -16 4 -6 -6 -10 -24 -10 -24 0 -29 -4 -24 -16 5 -14 3 -14 -16 -2
-18 11 -23 11 -31 -2 -7 -11 -10 -11 -10 -2 0 7 -6 12 -12 10 -7 -1 -24 4 -38
12 -14 7 -27 14 -30 14 -3 1 -4 7 -4 14 1 6 -6 12 -17 12 -10 0 -21 5 -24 10
-3 6 0 10 8 10 9 0 3 12 -17 33 -17 19 -32 43 -33 54 -2 29 37 69 77 78 19 4
53 16 76 26 23 9 52 15 63 12 15 -4 21 -1 21 11 0 10 -5 13 -17 9 -13 -5 -15
-2 -10 16 3 13 1 31 -5 41 -11 18 -5 50 10 50 4 0 8 -16 9 -35z m2603 25 c0
-5 -4 -10 -10 -10 -5 0 -10 5 -10 10 0 6 5 10 10 10 6 0 10 -4 10 -10z m-783
-22 c-3 -8 -6 -5 -6 6 -1 11 2 17 5 13 3 -3 4 -12 1 -19z m-1837 -38 c0 -5 -4
-10 -10 -10 -5 0 -10 5 -10 10 0 6 5 10 10 10 6 0 10 -4 10 -10z m1753 -15
c-3 -9 -8 -14 -10 -11 -3 3 -2 9 2 15 9 16 15 13 8 -4z m4621 -16 c-3 -5 -10
-7 -15 -3 -5 3 -7 10 -3 15 3 5 10 7 15 3 5 -3 7 -10 3 -15z m-1030 -6 c4 -9
3 -20 -1 -24 -13 -13 -37 7 -30 25 8 21 23 20 31 -1z m1156 -204 c0 -5 -4 -9
-10 -9 -5 0 -10 7 -10 16 0 8 5 12 10 9 6 -3 10 -10 10 -16z m-3820 -369 c0
-5 -5 -10 -11 -10 -5 0 -7 5 -4 10 3 6 8 10 11 10 2 0 4 -4 4 -10z m-2322
-569 c6 -1 12 -8 12 -16 0 -9 6 -12 15 -9 8 4 15 1 15 -6 0 -7 7 -10 15 -6 8
3 18 -1 22 -8 11 -19 83 -56 109 -56 12 0 24 -7 28 -15 3 -8 12 -15 21 -15 8
0 15 -2 15 -4 0 -2 3 -13 6 -23 5 -15 4 -15 -5 -3 -6 8 -11 10 -11 4 0 -22
-162 -45 -175 -25 -3 6 -14 11 -23 11 -15 0 -15 -2 -2 -10 9 -6 10 -10 3 -10
-6 0 -19 7 -28 16 -8 9 -23 13 -32 10 -13 -5 -13 -4 -4 7 8 11 7 23 -5 53 -23
55 -26 113 -5 109 9 -2 22 -4 29 -4z m469 -242 c6 -6 17 -8 22 -5 5 4 12 2 16
-4 4 -6 10 -8 15 -5 4 3 7 -3 6 -13 0 -9 4 -16 11 -15 12 3 113 -104 113 -119
0 -4 7 -8 15 -8 14 0 19 -12 16 -32 0 -5 4 -8 9 -8 6 0 10 -7 10 -15 0 -8 7
-15 15 -15 8 0 14 -3 14 -7 -4 -27 3 -45 16 -40 11 5 13 0 9 -22 -4 -16 -1
-32 5 -35 6 -4 9 -12 6 -17 -4 -5 -1 -9 4 -9 6 0 11 -5 11 -11 0 -5 -5 -7 -12
-3 -7 4 -8 3 -4 -4 4 -7 14 -12 22 -12 8 0 14 -9 14 -19 0 -11 3 -27 7 -37 6
-17 5 -17 -17 -1 -14 9 -32 17 -42 17 -21 0 -24 16 -5 23 7 3 5 6 -5 6 -10 1
-18 -3 -18 -9 0 -5 -5 -10 -11 -10 -6 0 -8 7 -5 16 3 8 2 13 -2 10 -10 -6 -82
59 -82 73 0 6 -7 8 -15 5 -8 -4 -15 -1 -15 5 0 6 -7 11 -15 11 -8 0 -15 5 -15
10 0 6 -6 10 -13 10 -7 0 -18 9 -25 20 -7 12 -17 18 -22 15 -6 -3 -10 -1 -10
4 0 6 -7 11 -15 11 -18 0 -86 31 -102 47 -7 6 -26 14 -43 18 -16 4 -30 11 -30
16 0 6 -9 8 -19 4 -14 -4 -21 0 -23 12 -7 32 3 50 48 84 24 18 44 38 44 44 0
25 25 36 65 30 21 -3 45 -11 52 -16z m793 -1543 c0 -2 -7 -7 -16 -10 -8 -3
-12 -2 -9 4 6 10 25 14 25 6z"/>
<path d="M15746 9343 c-4 -9 -1 -21 5 -27 9 -8 10 -7 6 7 -4 9 -2 17 3 17 6 0
10 5 10 10 0 16 -17 11 -24 -7z"/>
<path d="M16287 8610 c10 -11 22 -20 27 -20 5 0 1 9 -9 20 -10 11 -22 20 -26
20 -5 0 -1 -9 8 -20z"/>
<path d="M9300 5990 c-13 -8 -12 -10 3 -10 9 0 17 5 17 10 0 12 -1 12 -20 0z"/>
</g>
</svg>
